# xmcd
#
# Track frame offsets:
#	150
#	16007
#	34566
#	53164
#	70032
#	85748
#	100200
#	119166
#	130076
#	147258
#	161446
#	180785
#	204473
# Disc length: 2882 seconds
# Revision: 5
# Processed by: cddbd v1.5.2PL0 Copyright (c) Steve Scherf et al.
#
# Submitted via: libkcddb 0.31
#
DISCID=a00b400d
DTITLE=Story Of The Year - In The Wake Of Determination
DYEAR=2005
DGENRE=New Age
TTITLE0=We Don't Care Anymore
TTITLE1=Take Me Back
TTITLE2=Our Time Is Now
TTITLE3=Taste The Poison
TTITLE4=Stereo
TTITLE5=Five Against The World
TTITLE6=Sleep
TTITLE7=Meathead
TTITLE8=March Of The Dead
TTITLE9=Pay Your Enemy
TTITLE10=Wake Up The Voiceless
TTITLE11="Is This My Fate?" He Asked Them
TTITLE12=Long Empty Road{Bonus Track}
EXTD=YEAR: 2005
EXTT0=
EXTT1=
EXTT2=
EXTT3=
EXTT4=
EXTT5=
EXTT6=
EXTT7=
EXTT8=
EXTT9=
EXTT10=
EXTT11=
EXTT12=
PLAYORDER=
